<?xml version="1.0" encoding="UTF-8" ?>
<svg version="1.1" width="43" height="43" xmlns="http://www.w3.org/2000/svg" shape-rendering="crispEdges">
<rect x="22" y="0" width="1" height="1" fill="#8962D1" />
<rect x="23" y="0" width="1" height="1" fill="#8962D1" />
<rect x="24" y="0" width="1" height="1" fill="#8962D1" />
<rect x="20" y="1" width="1" height="1" fill="#8962D1" />
<rect x="21" y="1" width="1" height="1" fill="#8962D1" />
<rect x="22" y="1" width="1" height="1" fill="#8962D1" />
<rect x="23" y="1" width="1" height="1" fill="#8962D1" />
<rect x="24" y="1" width="1" height="1" fill="#8962D1" />
<rect x="25" y="1" width="1" height="1" fill="#8962D1" />
<rect x="18" y="2" width="1" height="1" fill="#8962D1" />
<rect x="19" y="2" width="1" height="1" fill="#8962D1" />
<rect x="20" y="2" width="1" height="1" fill="#8962D1" />
<rect x="21" y="2" width="1" height="1" fill="#8962D1" />
<rect x="22" y="2" width="1" height="1" fill="#4E3879" />
<rect x="23" y="2" width="1" height="1" fill="#8962D1" />
<rect x="24" y="2" width="1" height="1" fill="#8962D1" />
<rect x="25" y="2" width="1" height="1" fill="#8962D1" />
<rect x="16" y="3" width="1" height="1" fill="#8962D1" />
<rect x="17" y="3" width="1" height="1" fill="#8962D1" />
<rect x="18" y="3" width="1" height="1" fill="#8962D1" />
<rect x="19" y="3" width="1" height="1" fill="#8962D1" />
<rect x="20" y="3" width="1" height="1" fill="#4E3879" />
<rect x="21" y="3" width="1" height="1" fill="#4E3879" />
<rect x="22" y="3" width="1" height="1" fill="#4E3879" />
<rect x="23" y="3" width="1" height="1" fill="#8962D1" />
<rect x="24" y="3" width="1" height="1" fill="#8962D1" />
<rect x="25" y="3" width="1" height="1" fill="#8962D1" />
<rect x="14" y="4" width="1" height="1" fill="#8962D1" />
<rect x="15" y="4" width="1" height="1" fill="#8962D1" />
<rect x="16" y="4" width="1" height="1" fill="#8962D1" />
<rect x="17" y="4" width="1" height="1" fill="#8962D1" />
<rect x="18" y="4" width="1" height="1" fill="#4E3879" />
<rect x="19" y="4" width="1" height="1" fill="#4E3879" />
<rect x="20" y="4" width="1" height="1" fill="#4E3879" />
<rect x="21" y="4" width="1" height="1" fill="#4E3879" />
<rect x="23" y="4" width="1" height="1" fill="#4E3879" />
<rect x="24" y="4" width="1" height="1" fill="#8962D1" />
<rect x="25" y="4" width="1" height="1" fill="#8962D1" />
<rect x="26" y="4" width="1" height="1" fill="#8962D1" />
<rect x="7" y="5" width="1" height="1" fill="#8962D1" />
<rect x="12" y="5" width="1" height="1" fill="#8962D1" />
<rect x="13" y="5" width="1" height="1" fill="#8962D1" />
<rect x="14" y="5" width="1" height="1" fill="#8962D1" />
<rect x="15" y="5" width="1" height="1" fill="#8962D1" />
<rect x="16" y="5" width="1" height="1" fill="#4E3879" />
<rect x="17" y="5" width="1" height="1" fill="#4E3879" />
<rect x="18" y="5" width="1" height="1" fill="#4E3879" />
<rect x="19" y="5" width="1" height="1" fill="#4E3879" />
<rect x="23" y="5" width="1" height="1" fill="#4E3879" />
<rect x="24" y="5" width="1" height="1" fill="#8962D1" />
<rect x="25" y="5" width="1" height="1" fill="#8962D1" />
<rect x="26" y="5" width="1" height="1" fill="#8962D1" />
<rect x="7" y="6" width="1" height="1" fill="#4E3879" />
<rect x="10" y="6" width="1" height="1" fill="#8962D1" />
<rect x="11" y="6" width="1" height="1" fill="#8962D1" />
<rect x="12" y="6" width="1" height="1" fill="#8962D1" />
<rect x="13" y="6" width="1" height="1" fill="#8962D1" />
<rect x="14" y="6" width="1" height="1" fill="#4E3879" />
<rect x="15" y="6" width="1" height="1" fill="#4E3879" />
<rect x="16" y="6" width="1" height="1" fill="#4E3879" />
<rect x="17" y="6" width="1" height="1" fill="#4E3879" />
<rect x="24" y="6" width="1" height="1" fill="#4E3879" />
<rect x="25" y="6" width="1" height="1" fill="#8962D1" />
<rect x="26" y="6" width="1" height="1" fill="#8962D1" />
<rect x="27" y="6" width="1" height="1" fill="#8962D1" />
<rect x="7" y="7" width="1" height="1" fill="#4E3879" />
<rect x="8" y="7" width="1" height="1" fill="#8962D1" />
<rect x="9" y="7" width="1" height="1" fill="#8962D1" />
<rect x="10" y="7" width="1" height="1" fill="#8962D1" />
<rect x="11" y="7" width="1" height="1" fill="#8962D1" />
<rect x="12" y="7" width="1" height="1" fill="#4E3879" />
<rect x="13" y="7" width="1" height="1" fill="#4E3879" />
<rect x="14" y="7" width="1" height="1" fill="#4E3879" />
<rect x="15" y="7" width="1" height="1" fill="#4E3879" />
<rect x="24" y="7" width="1" height="1" fill="#4E3879" />
<rect x="25" y="7" width="1" height="1" fill="#8962D1" />
<rect x="26" y="7" width="1" height="1" fill="#8962D1" />
<rect x="27" y="7" width="1" height="1" fill="#8962D1" />
<rect x="6" y="8" width="1" height="1" fill="#8962D1" />
<rect x="7" y="8" width="1" height="1" fill="#8962D1" />
<rect x="8" y="8" width="1" height="1" fill="#8962D1" />
<rect x="9" y="8" width="1" height="1" fill="#8962D1" />
<rect x="10" y="8" width="1" height="1" fill="#4E3879" />
<rect x="11" y="8" width="1" height="1" fill="#4E3879" />
<rect x="12" y="8" width="1" height="1" fill="#4E3879" />
<rect x="13" y="8" width="1" height="1" fill="#4E3879" />
<rect x="25" y="8" width="1" height="1" fill="#4E3879" />
<rect x="26" y="8" width="1" height="1" fill="#8962D1" />
<rect x="27" y="8" width="1" height="1" fill="#8962D1" />
<rect x="28" y="8" width="1" height="1" fill="#8962D1" />
<rect x="4" y="9" width="1" height="1" fill="#8962D1" />
<rect x="5" y="9" width="1" height="1" fill="#8962D1" />
<rect x="6" y="9" width="1" height="1" fill="#8962D1" />
<rect x="7" y="9" width="1" height="1" fill="#8962D1" />
<rect x="8" y="9" width="1" height="1" fill="#4E3879" />
<rect x="9" y="9" width="1" height="1" fill="#4E3879" />
<rect x="10" y="9" width="1" height="1" fill="#4E3879" />
<rect x="11" y="9" width="1" height="1" fill="#4E3879" />
<rect x="25" y="9" width="1" height="1" fill="#4E3879" />
<rect x="26" y="9" width="1" height="1" fill="#8962D1" />
<rect x="27" y="9" width="1" height="1" fill="#8962D1" />
<rect x="28" y="9" width="1" height="1" fill="#8962D1" />
<rect x="3" y="10" width="1" height="1" fill="#8962D1" />
<rect x="4" y="10" width="1" height="1" fill="#8962D1" />
<rect x="5" y="10" width="1" height="1" fill="#8962D1" />
<rect x="6" y="10" width="1" height="1" fill="#8962D1" />
<rect x="7" y="10" width="1" height="1" fill="#4E3879" />
<rect x="8" y="10" width="1" height="1" fill="#4E3879" />
<rect x="9" y="10" width="1" height="1" fill="#4E3879" />
<rect x="26" y="10" width="1" height="1" fill="#4E3879" />
<rect x="27" y="10" width="1" height="1" fill="#8962D1" />
<rect x="28" y="10" width="1" height="1" fill="#8962D1" />
<rect x="29" y="10" width="1" height="1" fill="#8962D1" />
<rect x="3" y="11" width="1" height="1" fill="#4E3879" />
<rect x="4" y="11" width="1" height="1" fill="#8962D1" />
<rect x="5" y="11" width="1" height="1" fill="#8962D1" />
<rect x="6" y="11" width="1" height="1" fill="#8962D1" />
<rect x="7" y="11" width="1" height="1" fill="#4E3879" />
<rect x="26" y="11" width="1" height="1" fill="#4E3879" />
<rect x="27" y="11" width="1" height="1" fill="#8962D1" />
<rect x="28" y="11" width="1" height="1" fill="#8962D1" />
<rect x="29" y="11" width="1" height="1" fill="#8962D1" />
<rect x="3" y="12" width="1" height="1" fill="#4E3879" />
<rect x="4" y="12" width="1" height="1" fill="#8962D1" />
<rect x="5" y="12" width="1" height="1" fill="#8962D1" />
<rect x="6" y="12" width="1" height="1" fill="#8962D1" />
<rect x="27" y="12" width="1" height="1" fill="#4E3879" />
<rect x="28" y="12" width="1" height="1" fill="#8962D1" />
<rect x="29" y="12" width="1" height="1" fill="#8962D1" />
<rect x="30" y="12" width="1" height="1" fill="#8962D1" />
<rect x="4" y="13" width="1" height="1" fill="#4E3879" />
<rect x="5" y="13" width="1" height="1" fill="#8962D1" />
<rect x="6" y="13" width="1" height="1" fill="#8962D1" />
<rect x="7" y="13" width="1" height="1" fill="#8962D1" />
<rect x="27" y="13" width="1" height="1" fill="#4E3879" />
<rect x="28" y="13" width="1" height="1" fill="#8962D1" />
<rect x="29" y="13" width="1" height="1" fill="#8962D1" />
<rect x="30" y="13" width="1" height="1" fill="#8962D1" />
<rect x="35" y="13" width="1" height="1" fill="#8962D1" />
<rect x="36" y="13" width="1" height="1" fill="#8962D1" />
<rect x="4" y="14" width="1" height="1" fill="#4E3879" />
<rect x="5" y="14" width="1" height="1" fill="#8962D1" />
<rect x="6" y="14" width="1" height="1" fill="#8962D1" />
<rect x="7" y="14" width="1" height="1" fill="#8962D1" />
<rect x="20" y="14" width="1" height="1" fill="#8962D1" />
<rect x="21" y="14" width="1" height="1" fill="#8962D1" />
<rect x="28" y="14" width="1" height="1" fill="#4E3879" />
<rect x="29" y="14" width="1" height="1" fill="#8962D1" />
<rect x="30" y="14" width="1" height="1" fill="#8962D1" />
<rect x="31" y="14" width="1" height="1" fill="#8962D1" />
<rect x="35" y="14" width="1" height="1" fill="#4E3879" />
<rect x="36" y="14" width="1" height="1" fill="#8962D1" />
<rect x="5" y="15" width="1" height="1" fill="#4E3879" />
<rect x="6" y="15" width="1" height="1" fill="#8962D1" />
<rect x="7" y="15" width="1" height="1" fill="#8962D1" />
<rect x="8" y="15" width="1" height="1" fill="#8962D1" />
<rect x="18" y="15" width="1" height="1" fill="#8962D1" />
<rect x="19" y="15" width="1" height="1" fill="#8962D1" />
<rect x="20" y="15" width="1" height="1" fill="#8962D1" />
<rect x="21" y="15" width="1" height="1" fill="#8962D1" />
<rect x="28" y="15" width="1" height="1" fill="#4E3879" />
<rect x="29" y="15" width="1" height="1" fill="#8962D1" />
<rect x="30" y="15" width="1" height="1" fill="#8962D1" />
<rect x="31" y="15" width="1" height="1" fill="#8962D1" />
<rect x="35" y="15" width="1" height="1" fill="#4E3879" />
<rect x="36" y="15" width="1" height="1" fill="#4E3879" />
<rect x="5" y="16" width="1" height="1" fill="#4E3879" />
<rect x="6" y="16" width="1" height="1" fill="#8962D1" />
<rect x="7" y="16" width="1" height="1" fill="#8962D1" />
<rect x="8" y="16" width="1" height="1" fill="#8962D1" />
<rect x="17" y="16" width="1" height="1" fill="#8962D1" />
<rect x="18" y="16" width="1" height="1" fill="#8962D1" />
<rect x="19" y="16" width="1" height="1" fill="#8962D1" />
<rect x="20" y="16" width="1" height="1" fill="#8962D1" />
<rect x="21" y="16" width="1" height="1" fill="#8962D1" />
<rect x="29" y="16" width="1" height="1" fill="#4E3879" />
<rect x="30" y="16" width="1" height="1" fill="#8962D1" />
<rect x="31" y="16" width="1" height="1" fill="#8962D1" />
<rect x="32" y="16" width="1" height="1" fill="#8962D1" />
<rect x="36" y="16" width="1" height="1" fill="#4E3879" />
<rect x="6" y="17" width="1" height="1" fill="#4E3879" />
<rect x="7" y="17" width="1" height="1" fill="#8962D1" />
<rect x="8" y="17" width="1" height="1" fill="#8962D1" />
<rect x="9" y="17" width="1" height="1" fill="#8962D1" />
<rect x="17" y="17" width="1" height="1" fill="#8962D1" />
<rect x="18" y="17" width="1" height="1" fill="#8962D1" />
<rect x="19" y="17" width="1" height="1" fill="#8962D1" />
<rect x="20" y="17" width="1" height="1" fill="#8962D1" />
<rect x="21" y="17" width="1" height="1" fill="#8962D1" />
<rect x="29" y="17" width="1" height="1" fill="#4E3879" />
<rect x="30" y="17" width="1" height="1" fill="#8962D1" />
<rect x="31" y="17" width="1" height="1" fill="#8962D1" />
<rect x="32" y="17" width="1" height="1" fill="#8962D1" />
<rect x="6" y="18" width="1" height="1" fill="#4E3879" />
<rect x="7" y="18" width="1" height="1" fill="#8962D1" />
<rect x="8" y="18" width="1" height="1" fill="#8962D1" />
<rect x="9" y="18" width="1" height="1" fill="#8962D1" />
<rect x="17" y="18" width="1" height="1" fill="#4E3879" />
<rect x="18" y="18" width="1" height="1" fill="#4E3879" />
<rect x="19" y="18" width="1" height="1" fill="#8962D1" />
<rect x="20" y="18" width="1" height="1" fill="#8962D1" />
<rect x="21" y="18" width="1" height="1" fill="#8962D1" />
<rect x="30" y="18" width="1" height="1" fill="#4E3879" />
<rect x="31" y="18" width="1" height="1" fill="#8962D1" />
<rect x="32" y="18" width="1" height="1" fill="#8962D1" />
<rect x="33" y="18" width="1" height="1" fill="#8962D1" />
<rect x="7" y="19" width="1" height="1" fill="#4E3879" />
<rect x="8" y="19" width="1" height="1" fill="#8962D1" />
<rect x="9" y="19" width="1" height="1" fill="#8962D1" />
<rect x="10" y="19" width="1" height="1" fill="#8962D1" />
<rect x="17" y="19" width="1" height="1" fill="#4E3879" />
<rect x="18" y="19" width="1" height="1" fill="#4E3879" />
<rect x="19" y="19" width="1" height="1" fill="#4E3879" />
<rect x="20" y="19" width="1" height="1" fill="#8962D1" />
<rect x="21" y="19" width="1" height="1" fill="#8962D1" />
<rect x="30" y="19" width="1" height="1" fill="#4E3879" />
<rect x="31" y="19" width="1" height="1" fill="#8962D1" />
<rect x="32" y="19" width="1" height="1" fill="#8962D1" />
<rect x="33" y="19" width="1" height="1" fill="#8962D1" />
<rect x="7" y="20" width="1" height="1" fill="#4E3879" />
<rect x="8" y="20" width="1" height="1" fill="#8962D1" />
<rect x="9" y="20" width="1" height="1" fill="#8962D1" />
<rect x="10" y="20" width="1" height="1" fill="#8962D1" />
<rect x="19" y="20" width="1" height="1" fill="#4E3879" />
<rect x="20" y="20" width="1" height="1" fill="#4E3879" />
<rect x="21" y="20" width="1" height="1" fill="#4E3879" />
<rect x="31" y="20" width="1" height="1" fill="#8962D1" />
<rect x="32" y="20" width="1" height="1" fill="#8962D1" />
<rect x="33" y="20" width="1" height="1" fill="#8962D1" />
<rect x="34" y="20" width="1" height="1" fill="#8962D1" />
<rect x="8" y="21" width="1" height="1" fill="#4E3879" />
<rect x="9" y="21" width="1" height="1" fill="#8962D1" />
<rect x="10" y="21" width="1" height="1" fill="#8962D1" />
<rect x="11" y="21" width="1" height="1" fill="#8962D1" />
<rect x="20" y="21" width="1" height="1" fill="#4E3879" />
<rect x="21" y="21" width="1" height="1" fill="#4E3879" />
<rect x="22" y="21" width="1" height="1" fill="#8962D1" />
<rect x="23" y="21" width="1" height="1" fill="#8962D1" />
<rect x="31" y="21" width="1" height="1" fill="#8962D1" />
<rect x="32" y="21" width="1" height="1" fill="#8962D1" />
<rect x="33" y="21" width="1" height="1" fill="#8962D1" />
<rect x="34" y="21" width="1" height="1" fill="#8962D1" />
<rect x="8" y="22" width="1" height="1" fill="#4E3879" />
<rect x="9" y="22" width="1" height="1" fill="#8962D1" />
<rect x="10" y="22" width="1" height="1" fill="#8962D1" />
<rect x="11" y="22" width="1" height="1" fill="#8962D1" />
<rect x="22" y="22" width="1" height="1" fill="#8962D1" />
<rect x="23" y="22" width="1" height="1" fill="#8962D1" />
<rect x="31" y="22" width="1" height="1" fill="#8962D1" />
<rect x="32" y="22" width="1" height="1" fill="#8962D1" />
<rect x="33" y="22" width="1" height="1" fill="#8962D1" />
<rect x="34" y="22" width="1" height="1" fill="#8962D1" />
<rect x="35" y="22" width="1" height="1" fill="#8962D1" />
<rect x="9" y="23" width="1" height="1" fill="#4E3879" />
<rect x="10" y="23" width="1" height="1" fill="#8962D1" />
<rect x="11" y="23" width="1" height="1" fill="#8962D1" />
<rect x="12" y="23" width="1" height="1" fill="#8962D1" />
<rect x="22" y="23" width="1" height="1" fill="#4E3879" />
<rect x="23" y="23" width="1" height="1" fill="#4E3879" />
<rect x="31" y="23" width="1" height="1" fill="#8962D1" />
<rect x="32" y="23" width="1" height="1" fill="#8962D1" />
<rect x="33" y="23" width="1" height="1" fill="#8962D1" />
<rect x="34" y="23" width="1" height="1" fill="#8962D1" />
<rect x="35" y="23" width="1" height="1" fill="#8962D1" />
<rect x="9" y="24" width="1" height="1" fill="#4E3879" />
<rect x="10" y="24" width="1" height="1" fill="#8962D1" />
<rect x="11" y="24" width="1" height="1" fill="#8962D1" />
<rect x="12" y="24" width="1" height="1" fill="#8962D1" />
<rect x="22" y="24" width="1" height="1" fill="#4E3879" />
<rect x="23" y="24" width="1" height="1" fill="#4E3879" />
<rect x="30" y="24" width="1" height="1" fill="#8962D1" />
<rect x="31" y="24" width="1" height="1" fill="#8962D1" />
<rect x="32" y="24" width="1" height="1" fill="#8962D1" />
<rect x="33" y="24" width="1" height="1" fill="#8962D1" />
<rect x="34" y="24" width="1" height="1" fill="#8962D1" />
<rect x="35" y="24" width="1" height="1" fill="#8962D1" />
<rect x="36" y="24" width="1" height="1" fill="#8962D1" />
<rect x="10" y="25" width="1" height="1" fill="#4E3879" />
<rect x="11" y="25" width="1" height="1" fill="#8962D1" />
<rect x="12" y="25" width="1" height="1" fill="#8962D1" />
<rect x="13" y="25" width="1" height="1" fill="#8962D1" />
<rect x="30" y="25" width="1" height="1" fill="#8962D1" />
<rect x="31" y="25" width="1" height="1" fill="#8962D1" />
<rect x="32" y="25" width="1" height="1" fill="#8962D1" />
<rect x="33" y="25" width="1" height="1" fill="#8962D1" />
<rect x="34" y="25" width="1" height="1" fill="#8962D1" />
<rect x="35" y="25" width="1" height="1" fill="#8962D1" />
<rect x="36" y="25" width="1" height="1" fill="#8962D1" />
<rect x="10" y="26" width="1" height="1" fill="#4E3879" />
<rect x="11" y="26" width="1" height="1" fill="#8962D1" />
<rect x="12" y="26" width="1" height="1" fill="#8962D1" />
<rect x="13" y="26" width="1" height="1" fill="#8962D1" />
<rect x="30" y="26" width="1" height="1" fill="#8962D1" />
<rect x="31" y="26" width="1" height="1" fill="#8962D1" />
<rect x="32" y="26" width="1" height="1" fill="#8962D1" />
<rect x="33" y="26" width="1" height="1" fill="#8962D1" />
<rect x="34" y="26" width="1" height="1" fill="#8962D1" />
<rect x="35" y="26" width="1" height="1" fill="#8962D1" />
<rect x="36" y="26" width="1" height="1" fill="#8962D1" />
<rect x="37" y="26" width="1" height="1" fill="#8962D1" />
<rect x="11" y="27" width="1" height="1" fill="#4E3879" />
<rect x="12" y="27" width="1" height="1" fill="#8962D1" />
<rect x="13" y="27" width="1" height="1" fill="#8962D1" />
<rect x="14" y="27" width="1" height="1" fill="#8962D1" />
<rect x="30" y="27" width="1" height="1" fill="#8962D1" />
<rect x="31" y="27" width="1" height="1" fill="#8962D1" />
<rect x="32" y="27" width="1" height="1" fill="#8962D1" />
<rect x="33" y="27" width="1" height="1" fill="#8962D1" />
<rect x="34" y="27" width="1" height="1" fill="#8962D1" />
<rect x="35" y="27" width="1" height="1" fill="#8962D1" />
<rect x="36" y="27" width="1" height="1" fill="#8962D1" />
<rect x="37" y="27" width="1" height="1" fill="#8962D1" />
<rect x="11" y="28" width="1" height="1" fill="#4E3879" />
<rect x="12" y="28" width="1" height="1" fill="#8962D1" />
<rect x="13" y="28" width="1" height="1" fill="#8962D1" />
<rect x="14" y="28" width="1" height="1" fill="#8962D1" />
<rect x="30" y="28" width="1" height="1" fill="#8962D1" />
<rect x="31" y="28" width="1" height="1" fill="#8962D1" />
<rect x="32" y="28" width="1" height="1" fill="#8962D1" />
<rect x="33" y="28" width="1" height="1" fill="#8962D1" />
<rect x="34" y="28" width="1" height="1" fill="#8962D1" />
<rect x="35" y="28" width="1" height="1" fill="#8962D1" />
<rect x="36" y="28" width="1" height="1" fill="#8962D1" />
<rect x="37" y="28" width="1" height="1" fill="#8962D1" />
<rect x="38" y="28" width="1" height="1" fill="#8962D1" />
<rect x="12" y="29" width="1" height="1" fill="#4E3879" />
<rect x="13" y="29" width="1" height="1" fill="#8962D1" />
<rect x="14" y="29" width="1" height="1" fill="#8962D1" />
<rect x="15" y="29" width="1" height="1" fill="#8962D1" />
<rect x="29" y="29" width="1" height="1" fill="#8962D1" />
<rect x="30" y="29" width="1" height="1" fill="#8962D1" />
<rect x="31" y="29" width="1" height="1" fill="#8962D1" />
<rect x="32" y="29" width="1" height="1" fill="#8962D1" />
<rect x="33" y="29" width="1" height="1" fill="#8962D1" />
<rect x="34" y="29" width="1" height="1" fill="#8962D1" />
<rect x="35" y="29" width="1" height="1" fill="#8962D1" />
<rect x="36" y="29" width="1" height="1" fill="#8962D1" />
<rect x="37" y="29" width="1" height="1" fill="#8962D1" />
<rect x="38" y="29" width="1" height="1" fill="#8962D1" />
<rect x="7" y="30" width="1" height="1" fill="#8962D1" />
<rect x="12" y="30" width="1" height="1" fill="#4E3879" />
<rect x="13" y="30" width="1" height="1" fill="#8962D1" />
<rect x="14" y="30" width="1" height="1" fill="#8962D1" />
<rect x="15" y="30" width="1" height="1" fill="#8962D1" />
<rect x="29" y="30" width="1" height="1" fill="#8962D1" />
<rect x="30" y="30" width="1" height="1" fill="#8962D1" />
<rect x="31" y="30" width="1" height="1" fill="#8962D1" />
<rect x="32" y="30" width="1" height="1" fill="#8962D1" />
<rect x="33" y="30" width="1" height="1" fill="#8962D1" />
<rect x="34" y="30" width="1" height="1" fill="#8962D1" />
<rect x="35" y="30" width="1" height="1" fill="#8962D1" />
<rect x="36" y="30" width="1" height="1" fill="#8962D1" />
<rect x="37" y="30" width="1" height="1" fill="#8962D1" />
<rect x="38" y="30" width="1" height="1" fill="#8962D1" />
<rect x="39" y="30" width="1" height="1" fill="#8962D1" />
<rect x="6" y="31" width="1" height="1" fill="#8962D1" />
<rect x="7" y="31" width="1" height="1" fill="#8962D1" />
<rect x="13" y="31" width="1" height="1" fill="#4E3879" />
<rect x="14" y="31" width="1" height="1" fill="#8962D1" />
<rect x="15" y="31" width="1" height="1" fill="#8962D1" />
<rect x="16" y="31" width="1" height="1" fill="#8962D1" />
<rect x="28" y="31" width="1" height="1" fill="#8962D1" />
<rect x="29" y="31" width="1" height="1" fill="#8962D1" />
<rect x="30" y="31" width="1" height="1" fill="#8962D1" />
<rect x="31" y="31" width="1" height="1" fill="#8962D1" />
<rect x="32" y="31" width="1" height="1" fill="#8962D1" />
<rect x="33" y="31" width="1" height="1" fill="#8962D1" />
<rect x="34" y="31" width="1" height="1" fill="#8962D1" />
<rect x="35" y="31" width="1" height="1" fill="#8962D1" />
<rect x="36" y="31" width="1" height="1" fill="#8962D1" />
<rect x="37" y="31" width="1" height="1" fill="#8962D1" />
<rect x="38" y="31" width="1" height="1" fill="#8962D1" />
<rect x="39" y="31" width="1" height="1" fill="#4E3879" />
<rect x="6" y="32" width="1" height="1" fill="#4E3879" />
<rect x="7" y="32" width="1" height="1" fill="#4E3879" />
<rect x="13" y="32" width="1" height="1" fill="#4E3879" />
<rect x="14" y="32" width="1" height="1" fill="#8962D1" />
<rect x="15" y="32" width="1" height="1" fill="#8962D1" />
<rect x="16" y="32" width="1" height="1" fill="#8962D1" />
<rect x="26" y="32" width="1" height="1" fill="#8962D1" />
<rect x="27" y="32" width="1" height="1" fill="#8962D1" />
<rect x="28" y="32" width="1" height="1" fill="#8962D1" />
<rect x="29" y="32" width="1" height="1" fill="#8962D1" />
<rect x="30" y="32" width="1" height="1" fill="#8962D1" />
<rect x="31" y="32" width="1" height="1" fill="#8962D1" />
<rect x="32" y="32" width="1" height="1" fill="#8962D1" />
<rect x="33" y="32" width="1" height="1" fill="#8962D1" />
<rect x="34" y="32" width="1" height="1" fill="#8962D1" />
<rect x="35" y="32" width="1" height="1" fill="#8962D1" />
<rect x="36" y="32" width="1" height="1" fill="#8962D1" />
<rect x="37" y="32" width="1" height="1" fill="#4E3879" />
<rect x="38" y="32" width="1" height="1" fill="#4E3879" />
<rect x="39" y="32" width="1" height="1" fill="#4E3879" />
<rect x="6" y="33" width="1" height="1" fill="#4E3879" />
<rect x="7" y="33" width="1" height="1" fill="#4E3879" />
<rect x="14" y="33" width="1" height="1" fill="#4E3879" />
<rect x="15" y="33" width="1" height="1" fill="#8962D1" />
<rect x="16" y="33" width="1" height="1" fill="#8962D1" />
<rect x="17" y="33" width="1" height="1" fill="#8962D1" />
<rect x="24" y="33" width="1" height="1" fill="#8962D1" />
<rect x="25" y="33" width="1" height="1" fill="#8962D1" />
<rect x="26" y="33" width="1" height="1" fill="#8962D1" />
<rect x="27" y="33" width="1" height="1" fill="#8962D1" />
<rect x="28" y="33" width="1" height="1" fill="#8962D1" />
<rect x="29" y="33" width="1" height="1" fill="#8962D1" />
<rect x="30" y="33" width="1" height="1" fill="#8962D1" />
<rect x="31" y="33" width="1" height="1" fill="#8962D1" />
<rect x="32" y="33" width="1" height="1" fill="#8962D1" />
<rect x="33" y="33" width="1" height="1" fill="#8962D1" />
<rect x="34" y="33" width="1" height="1" fill="#8962D1" />
<rect x="35" y="33" width="1" height="1" fill="#4E3879" />
<rect x="36" y="33" width="1" height="1" fill="#4E3879" />
<rect x="37" y="33" width="1" height="1" fill="#4E3879" />
<rect x="38" y="33" width="1" height="1" fill="#4E3879" />
<rect x="14" y="34" width="1" height="1" fill="#4E3879" />
<rect x="15" y="34" width="1" height="1" fill="#8962D1" />
<rect x="16" y="34" width="1" height="1" fill="#8962D1" />
<rect x="17" y="34" width="1" height="1" fill="#8962D1" />
<rect x="22" y="34" width="1" height="1" fill="#8962D1" />
<rect x="23" y="34" width="1" height="1" fill="#8962D1" />
<rect x="24" y="34" width="1" height="1" fill="#8962D1" />
<rect x="25" y="34" width="1" height="1" fill="#8962D1" />
<rect x="26" y="34" width="1" height="1" fill="#8962D1" />
<rect x="27" y="34" width="1" height="1" fill="#8962D1" />
<rect x="28" y="34" width="1" height="1" fill="#8962D1" />
<rect x="29" y="34" width="1" height="1" fill="#8962D1" />
<rect x="30" y="34" width="1" height="1" fill="#8962D1" />
<rect x="31" y="34" width="1" height="1" fill="#8962D1" />
<rect x="32" y="34" width="1" height="1" fill="#8962D1" />
<rect x="33" y="34" width="1" height="1" fill="#4E3879" />
<rect x="34" y="34" width="1" height="1" fill="#4E3879" />
<rect x="35" y="34" width="1" height="1" fill="#4E3879" />
<rect x="36" y="34" width="1" height="1" fill="#4E3879" />
<rect x="15" y="35" width="1" height="1" fill="#4E3879" />
<rect x="16" y="35" width="1" height="1" fill="#8962D1" />
<rect x="17" y="35" width="1" height="1" fill="#8962D1" />
<rect x="18" y="35" width="1" height="1" fill="#8962D1" />
<rect x="20" y="35" width="1" height="1" fill="#8962D1" />
<rect x="21" y="35" width="1" height="1" fill="#8962D1" />
<rect x="22" y="35" width="1" height="1" fill="#8962D1" />
<rect x="23" y="35" width="1" height="1" fill="#8962D1" />
<rect x="24" y="35" width="1" height="1" fill="#8962D1" />
<rect x="25" y="35" width="1" height="1" fill="#8962D1" />
<rect x="26" y="35" width="1" height="1" fill="#8962D1" />
<rect x="27" y="35" width="1" height="1" fill="#8962D1" />
<rect x="28" y="35" width="1" height="1" fill="#8962D1" />
<rect x="29" y="35" width="1" height="1" fill="#8962D1" />
<rect x="30" y="35" width="1" height="1" fill="#8962D1" />
<rect x="31" y="35" width="1" height="1" fill="#4E3879" />
<rect x="32" y="35" width="1" height="1" fill="#4E3879" />
<rect x="33" y="35" width="1" height="1" fill="#4E3879" />
<rect x="34" y="35" width="1" height="1" fill="#8962D1" />
<rect x="15" y="36" width="1" height="1" fill="#4E3879" />
<rect x="16" y="36" width="1" height="1" fill="#8962D1" />
<rect x="17" y="36" width="1" height="1" fill="#8962D1" />
<rect x="18" y="36" width="1" height="1" fill="#8962D1" />
<rect x="19" y="36" width="1" height="1" fill="#8962D1" />
<rect x="20" y="36" width="1" height="1" fill="#8962D1" />
<rect x="21" y="36" width="1" height="1" fill="#8962D1" />
<rect x="22" y="36" width="1" height="1" fill="#8962D1" />
<rect x="23" y="36" width="1" height="1" fill="#8962D1" />
<rect x="24" y="36" width="1" height="1" fill="#8962D1" />
<rect x="25" y="36" width="1" height="1" fill="#8962D1" />
<rect x="26" y="36" width="1" height="1" fill="#8962D1" />
<rect x="27" y="36" width="1" height="1" fill="#8962D1" />
<rect x="28" y="36" width="1" height="1" fill="#8962D1" />
<rect x="29" y="36" width="1" height="1" fill="#4E3879" />
<rect x="30" y="36" width="1" height="1" fill="#4E3879" />
<rect x="31" y="36" width="1" height="1" fill="#4E3879" />
<rect x="32" y="36" width="1" height="1" fill="#4E3879" />
<rect x="34" y="36" width="1" height="1" fill="#4E3879" />
<rect x="16" y="37" width="1" height="1" fill="#4E3879" />
<rect x="17" y="37" width="1" height="1" fill="#8962D1" />
<rect x="18" y="37" width="1" height="1" fill="#8962D1" />
<rect x="19" y="37" width="1" height="1" fill="#8962D1" />
<rect x="20" y="37" width="1" height="1" fill="#8962D1" />
<rect x="21" y="37" width="1" height="1" fill="#8962D1" />
<rect x="22" y="37" width="1" height="1" fill="#8962D1" />
<rect x="23" y="37" width="1" height="1" fill="#8962D1" />
<rect x="24" y="37" width="1" height="1" fill="#8962D1" />
<rect x="25" y="37" width="1" height="1" fill="#8962D1" />
<rect x="26" y="37" width="1" height="1" fill="#8962D1" />
<rect x="27" y="37" width="1" height="1" fill="#4E3879" />
<rect x="28" y="37" width="1" height="1" fill="#4E3879" />
<rect x="29" y="37" width="1" height="1" fill="#4E3879" />
<rect x="30" y="37" width="1" height="1" fill="#4E3879" />
<rect x="34" y="37" width="1" height="1" fill="#4E3879" />
<rect x="16" y="38" width="1" height="1" fill="#4E3879" />
<rect x="17" y="38" width="1" height="1" fill="#8962D1" />
<rect x="18" y="38" width="1" height="1" fill="#8962D1" />
<rect x="19" y="38" width="1" height="1" fill="#8962D1" />
<rect x="20" y="38" width="1" height="1" fill="#8962D1" />
<rect x="21" y="38" width="1" height="1" fill="#8962D1" />
<rect x="22" y="38" width="1" height="1" fill="#8962D1" />
<rect x="23" y="38" width="1" height="1" fill="#8962D1" />
<rect x="24" y="38" width="1" height="1" fill="#8962D1" />
<rect x="25" y="38" width="1" height="1" fill="#4E3879" />
<rect x="26" y="38" width="1" height="1" fill="#4E3879" />
<rect x="27" y="38" width="1" height="1" fill="#4E3879" />
<rect x="28" y="38" width="1" height="1" fill="#4E3879" />
<rect x="17" y="39" width="1" height="1" fill="#4E3879" />
<rect x="18" y="39" width="1" height="1" fill="#8962D1" />
<rect x="19" y="39" width="1" height="1" fill="#8962D1" />
<rect x="20" y="39" width="1" height="1" fill="#8962D1" />
<rect x="21" y="39" width="1" height="1" fill="#8962D1" />
<rect x="22" y="39" width="1" height="1" fill="#8962D1" />
<rect x="23" y="39" width="1" height="1" fill="#4E3879" />
<rect x="24" y="39" width="1" height="1" fill="#4E3879" />
<rect x="25" y="39" width="1" height="1" fill="#4E3879" />
<rect x="26" y="39" width="1" height="1" fill="#4E3879" />
<rect x="17" y="40" width="1" height="1" fill="#4E3879" />
<rect x="18" y="40" width="1" height="1" fill="#8962D1" />
<rect x="19" y="40" width="1" height="1" fill="#8962D1" />
<rect x="20" y="40" width="1" height="1" fill="#8962D1" />
<rect x="21" y="40" width="1" height="1" fill="#4E3879" />
<rect x="22" y="40" width="1" height="1" fill="#4E3879" />
<rect x="23" y="40" width="1" height="1" fill="#4E3879" />
<rect x="24" y="40" width="1" height="1" fill="#4E3879" />
<rect x="18" y="41" width="1" height="1" fill="#4E3879" />
<rect x="19" y="41" width="1" height="1" fill="#4E3879" />
<rect x="20" y="41" width="1" height="1" fill="#4E3879" />
<rect x="21" y="41" width="1" height="1" fill="#4E3879" />
<rect x="22" y="41" width="1" height="1" fill="#4E3879" />
<rect x="18" y="42" width="1" height="1" fill="#4E3879" />
<rect x="19" y="42" width="1" height="1" fill="#4E3879" />
<rect x="20" y="42" width="1" height="1" fill="#4E3879" />
</svg>